<svg xmlns="http://www.w3.org/2000/svg" width="337" height="92">
    <path fill-rule="evenodd" fill="#D40468" d="M335.988 14.852a8.64 8.64 0 0 1-1.384 2.081 9.308 9.308 0 0 1-2.522 2.005c-.95.516-1.993.759-3.128.731l-.138-3.304a3.972 3.972 0 0 0 2.023-.223 4.252 4.252 0 0 0 2.306-2.082c.168-.34.278-.689.328-1.046.05-.357.021-.706-.087-1.048a2.035 2.035 0 0 0-.611-.912c-.485-.432-.997-.609-1.536-.531-.538.079-1.103.268-1.693.568-.591.3-1.211.651-1.86 1.055a8.52 8.52 0 0 1-2.01.922 4.919 4.919 0 0 1-2.151.16c-.744-.104-1.508-.505-2.292-1.204-.684-.609-1.151-1.276-1.4-1.999a5.146 5.146 0 0 1-.26-2.207 6.425 6.425 0 0 1 .65-2.216 8.967 8.967 0 0 1 1.353-2.009 8.75 8.75 0 0 1 2.122-1.743 6.275 6.275 0 0 1 2.616-.833l.282 3.33a2.912 2.912 0 0 0-1.683.292 4.68 4.68 0 0 0-2.037 1.969c-.165.311-.271.63-.317.957a2.1 2.1 0 0 0 .092.968c.107.319.31.611.609.877.448.399.929.548 1.442.448.514-.101 1.063-.304 1.647-.609.584-.306 1.201-.66 1.851-1.064a8.263 8.263 0 0 1 2.018-.914 5.035 5.035 0 0 1 2.17-.144c.75.111 1.517.514 2.302 1.213.709.631 1.212 1.314 1.508 2.046a5.06 5.06 0 0 1 .377 2.227 6.084 6.084 0 0 1-.587 2.239zm-22.579 4.663c.421.428.891.609 1.41.543.519-.066 1.08-.232 1.684-.498a28.767 28.767 0 0 0 1.917-.939 8.265 8.265 0 0 1 2.075-.777 5.003 5.003 0 0 1 2.175.001c.741.16 1.479.613 2.215 1.362.666.678 1.123 1.392 1.37 2.142.247.751.323 1.5.228 2.247a6.108 6.108 0 0 1-.735 2.195 8.65 8.65 0 0 1-1.52 1.985 9.288 9.288 0 0 1-2.649 1.833c-.982.451-2.039.625-3.169.521l.081-3.305a3.98 3.98 0 0 0 2.034-.089 4.244 4.244 0 0 0 2.438-1.924 3.39 3.39 0 0 0 .398-1.022 2.35 2.35 0 0 0-.017-1.052 2.047 2.047 0 0 0-.549-.95c-.456-.464-.955-.674-1.497-.632-.543.043-1.119.194-1.728.454s-1.251.57-1.926.929a8.527 8.527 0 0 1-2.066.787 4.918 4.918 0 0 1-2.157.017c-.736-.154-1.471-.605-2.207-1.354-.643-.653-1.064-1.349-1.264-2.088a5.148 5.148 0 0 1-.114-2.22c.125-.741.39-1.463.797-2.167a8.954 8.954 0 0 1 1.484-1.914 8.733 8.733 0 0 1 2.232-1.599 6.29 6.29 0 0 1 2.666-.657l.06 3.341a2.907 2.907 0 0 0-1.699.18 4.666 4.666 0 0 0-1.493.995 4.434 4.434 0 0 0-.67.834c-.185.299-.312.61-.38.934-.067.323-.058.648.027.972.086.325.269.63.549.915zm.843 10.261a8.648 8.648 0 0 1 .379 3.495 8.923 8.923 0 0 1-1.058 3.375c-.589 1.088-1.409 2.083-2.46 2.982-1.049.877-2.153 1.511-3.312 1.904a8.574 8.574 0 0 1-3.466.452 8.62 8.62 0 0 1-3.354-.993c-1.085-.571-2.07-1.387-2.957-2.449-.908-1.087-1.555-2.225-1.939-3.413-.385-1.188-.522-2.36-.412-3.516a8.5 8.5 0 0 1 1.054-3.34c.593-1.07 1.414-2.044 2.463-2.92 1.051-.899 2.154-1.555 3.309-1.966a8.317 8.317 0 0 1 3.478-.478c1.163.093 2.292.431 3.387 1.014 1.095.584 2.098 1.42 3.005 2.507.887 1.061 1.515 2.177 1.883 3.346zm-3.132.987a7.641 7.641 0 0 0-1.347-2.295 6.928 6.928 0 0 0-1.923-1.619 6.13 6.13 0 0 0-2.24-.751 5.657 5.657 0 0 0-2.343.198c-.783.231-1.527.641-2.231 1.228-.703.588-1.236 1.244-1.596 1.969a5.696 5.696 0 0 0-.603 2.262 6.138 6.138 0 0 0 .34 2.338 6.91 6.91 0 0 0 1.251 2.18c.609.729 1.282 1.307 2.019 1.734a6.162 6.162 0 0 0 2.28.8 5.747 5.747 0 0 0 2.349-.171c.783-.219 1.526-.623 2.23-1.211.703-.587 1.236-1.25 1.598-1.986.362-.737.56-1.5.596-2.29a6.196 6.196 0 0 0-.38-2.386zm-9.124 15.63-8.703 6.182-10.251-14.429 2.568-1.825 8.6 12.106 6.135-4.358 1.651 2.324zM278.518 61.49c-.786.956-1.781 1.775-2.985 2.457-1.197.659-2.402 1.071-3.615 1.234a8.57 8.57 0 0 1-3.489-.219 8.617 8.617 0 0 1-3.102-1.617c-.955-.767-1.766-1.757-2.434-2.969-.683-1.241-1.1-2.481-1.25-3.721-.15-1.24-.06-2.416.269-3.53a8.5 8.5 0 0 1 1.673-3.076c.787-.937 1.779-1.736 2.977-2.395 1.204-.682 2.412-1.114 3.624-1.297a8.317 8.317 0 0 1 3.504.197c1.124.313 2.168.861 3.131 1.643.964.783 1.787 1.795 2.471 3.035.667 1.212 1.069 2.427 1.207 3.645a8.657 8.657 0 0 1-.297 3.503 8.897 8.897 0 0 1-1.684 3.11zm-1.282-6.243c-.131-.841-.425-1.678-.883-2.511a6.932 6.932 0 0 0-1.577-1.957 6.17 6.17 0 0 0-2.055-1.166 5.672 5.672 0 0 0-2.338-.254c-.813.077-1.622.337-2.425.779-.803.442-1.451.985-1.943 1.627a5.683 5.683 0 0 0-1.025 2.105 6.136 6.136 0 0 0-.113 2.36c.114.812.385 1.605.811 2.379.458.832 1.008 1.528 1.649 2.088a6.132 6.132 0 0 0 2.085 1.221 5.746 5.746 0 0 0 2.338.282c.811-.065 1.617-.319 2.421-.762.802-.442 1.452-.99 1.948-1.644a5.707 5.707 0 0 0 1.023-2.132 6.172 6.172 0 0 0 .084-2.415zm-19.611 17.051-6.076-13.55-4.95 2.219-1.166-2.6 12.775-5.728 1.166 2.6-4.95 2.22 6.075 13.55-2.874 1.289zm-11.301 4.637-12.791-9.861-.047.017 4.547 12.791-2.969 1.055-5.928-16.678 3.934-1.398 12.484 9.519.047-.017-4.404-12.391 2.968-1.055 5.928 16.678-3.769 1.34zm-18.631 6.046-4.863-17.019 3.029-.865 4.862 17.018-3.028.866zm-19.037 4.858c-1.344.245-2.618.252-3.82.023a8.577 8.577 0 0 1-3.239-1.315 8.605 8.605 0 0 1-2.428-2.518c-.663-1.031-1.118-2.227-1.366-3.588-.254-1.394-.256-2.702-.004-3.926.251-1.223.709-2.31 1.374-3.262a8.506 8.506 0 0 1 2.564-2.386c1.043-.639 2.238-1.081 3.582-1.327a14.322 14.322 0 0 1 3.826-.202 7.836 7.836 0 0 1 3.435 1.14l-1.865 2.729a5.84 5.84 0 0 0-2.258-.884 7.297 7.297 0 0 0-2.602.017c-.902.164-1.688.473-2.359.926a5.686 5.686 0 0 0-1.64 1.671c-.422.661-.707 1.395-1.756 2.202.75.806.755 1.644.913 2.513.171.935.471 1.769.902 2.504.43.735.96 1.341 1.59 1.819a5.741 5.741 0 0 0 2.128 1.01c.789.195 1.635.21 2.537.045a10.846 10.846 0 0 0 2.185-.627 6.406 6.406 0 0 0 1.731-1.027l-.749-4.107-3.566.65-.511-2.804 6.665-1.215 1.623 8.903c-1.938 1.54-4.236 2.551-6.892 3.036zM181.84 77.161l-.049.005 1.224 13.519-3.137.285-1.597-17.628 4.158-.377 9.727 12.323.049-.005-1.186-13.096 3.137-.284 1.597 17.628-3.984.36-9.939-12.73zm-10.126-3.723 3.148-.09.508 17.693-3.149.09-.507-17.693zm-7.299 2.877-.313 14.847-3.15-.066.314-14.847-5.406-.114v.001l-5.404-.476-1.303 14.793-3.137-.277 1.302-14.792-5.404-.476.25-2.839 13.833 1.218 13.902.294-.06 2.849-5.424-.115zm-32.321-2.948-.681 4.297 8.025 1.271-.446 2.815-8.025-1.272-.751 4.741 8.914 1.413-.446 2.815-12.025-1.906 2.77-17.482 11.581 1.835-.446 2.815-8.47-1.342zm-10.829-2.138a7.302 7.302 0 0 0-2.384-1.042c-.891-.216-1.735-.254-2.532-.113a5.69 5.69 0 0 0-2.177.861 6.13 6.13 0 0 0-1.677 1.664 6.874 6.874 0 0 0-1.009 2.302c-.224.923-.289 1.807-.194 2.654.094.846.332 1.615.713 2.308.38.693.892 1.289 1.534 1.787.642.499 1.409.857 2.3 1.073.777.189 1.527.294 2.251.315a6.44 6.44 0 0 0 2-.235l.984-4.057-3.522-.855.672-2.77 6.584 1.598-2.135 8.795c-2.397.619-4.907.61-7.531-.027-1.328-.323-2.495-.833-3.5-1.532a8.57 8.57 0 0 1-2.425-2.517 8.6 8.6 0 0 1-1.195-3.288c-.187-1.211-.117-2.489.21-3.833.334-1.377.864-2.573 1.591-3.589.727-1.015 1.587-1.823 2.582-2.422a8.506 8.506 0 0 1 3.312-1.138c1.213-.16 2.484-.079 3.812.244 1.312.318 2.504.775 3.578 1.37a7.83 7.83 0 0 1 2.676 2.437l-2.814 1.735a5.827 5.827 0 0 0-1.704-1.725zm-24.451-7.157L91.68 78.006l-2.956-1.089 5.134-13.934-5.09-1.876.985-2.674 13.137 4.84-.985 2.674-5.091-1.875zm-14.681 6.429a6.482 6.482 0 0 1-2.274 1.366c-.825.283-1.7.392-2.623.327-.923-.064-1.848-.308-2.772-.73-.925-.423-1.714-.962-2.367-1.617a6.732 6.732 0 0 1-1.481-2.203 6.228 6.228 0 0 1-.456-2.613c.031-.929.268-1.879.711-2.849l4.654-10.188 2.865 1.309L73.778 63.4c-.18.394-.308.834-.384 1.322-.077.487-.058.977.057 1.469.114.492.348.961.704 1.407.355.447.873.825 1.556 1.137.682.312 1.307.456 1.877.432a3.556 3.556 0 0 0 1.525-.389 3.828 3.828 0 0 0 1.148-.919c.318-.376.568-.762.748-1.156l4.612-10.096 2.866 1.309-4.654 10.187c-.444.97-1.011 1.769-1.7 2.398zM69.341 58.846c-.685 1.202-1.511 2.179-2.478 2.932a8.635 8.635 0 0 1-3.143 1.575 8.906 8.906 0 0 1-3.531.188c-1.226-.172-2.444-.593-3.654-1.264-1.188-.677-2.168-1.491-2.94-2.439a8.558 8.558 0 0 1-1.634-3.091 8.598 8.598 0 0 1-.24-3.489c.155-1.216.576-2.424 1.262-3.626.701-1.231 1.542-2.234 2.521-3.009.979-.775 2.029-1.313 3.151-1.614a8.5 8.5 0 0 1 3.497-.178c1.211.182 2.41.612 3.597 1.289 1.21.671 2.209 1.475 2.997 2.414a8.312 8.312 0 0 1 1.662 3.092c.319 1.122.397 2.298.233 3.528-.165 1.23-.598 2.461-1.3 3.692zm-2.049-6.45a5.658 5.658 0 0 0-1.003-2.126c-.491-.654-1.134-1.208-1.93-1.662-.797-.454-1.598-.724-2.403-.809a5.698 5.698 0 0 0-2.33.225 6.135 6.135 0 0 0-2.072 1.135 6.913 6.913 0 0 0-1.606 1.934c-.47.825-.777 1.657-.92 2.497a6.15 6.15 0 0 0 .047 2.415c.174.771.501 1.485.98 2.142.479.657 1.117 1.213 1.913 1.667.796.454 1.603.722 2.42.804.816.082 1.6.002 2.353-.241a6.17 6.17 0 0 0 2.103-1.189c.649-.551 1.21-1.239 1.68-2.064a6.88 6.88 0 0 0 .846-2.367 6.109 6.109 0 0 0-.078-2.361zm-24.259 1.037 4.46-6.399-6.789-4.731-4.46 6.399-2.584-1.801L43.781 32.38l2.584 1.801-4.031 5.784 6.789 4.731 4.031-5.784 2.584 1.801-10.12 14.522-2.585-1.802zM36.632 30.28l-9.39 11.505-2.44-1.992 9.389-11.505-4.203-3.43 1.802-2.208 10.846 8.852-1.802 2.208-4.202-3.43zm-20.325 2.115L28.17 19.259l2.338 2.111-11.863 13.136-2.338-2.111zm-7.724-7.374 6.899-12.28-.035-.036-12.569 6.356-2.005-2.095L10.046.952l2.385 2.492L5.52 14.663l.035.036 11.959-5.945 2.144 2.239-6.514 11.634.035.036 11.613-6.306 2.213 2.311-16.347 8.52-2.075-2.167z"/>
</svg>
